<svg id="visual" viewBox="0 0 900 600" width="900" height="600" xmlns="http://www.w3.org/2000/svg" xmlns:xlink="http://www.w3.org/1999/xlink" version="1.1"><rect width="900" height="600" fill="#DEDED8"></rect><g><g transform="translate(134 44)"><path d="M0 -147L127.3 -73.5L127.3 73.5L0 147L-127.3 73.5L-127.3 -73.5Z" fill="none" stroke="#393632" stroke-width="2"></path></g><g transform="translate(835 184)"><path d="M0 -106L91.8 -53L91.8 53L0 106L-91.8 53L-91.8 -53Z" fill="none" stroke="#393632" stroke-width="2"></path></g><g transform="translate(84 568)"><path d="M0 -134L116 -67L116 67L0 134L-116 67L-116 -67Z" stroke="#393632" fill="none" stroke-width="2"></path></g><g transform="translate(583 495)"><path d="M0 -80L69.3 -40L69.3 40L0 80L-69.3 40L-69.3 -40Z" stroke="#393632" fill="none" stroke-width="2"></path></g></g></svg>