<svg id="visual" viewBox="0 0 900 600" width="900" height="600" xmlns="http://www.w3.org/2000/svg" xmlns:xlink="http://www.w3.org/1999/xlink" version="1.1"><rect width="900" height="600" fill="#DEDED8"></rect><g><g transform="translate(128 470)"><path d="M0 -147L127.3 -73.5L127.3 73.5L0 147L-127.3 73.5L-127.3 -73.5Z" fill="none" stroke="#393632" stroke-width="2"></path></g><g transform="translate(898 353)"><path d="M0 -104L90.1 -52L90.1 52L0 104L-90.1 52L-90.1 -52Z" fill="none" stroke="#393632" stroke-width="2"></path></g><g transform="translate(148 10)"><path d="M0 -141L122.1 -70.5L122.1 70.5L0 141L-122.1 70.5L-122.1 -70.5Z" stroke="#393632" fill="none" stroke-width="2"></path></g><g transform="translate(808 33)"><path d="M0 -122L105.7 -61L105.7 61L0 122L-105.7 61L-105.7 -61Z" stroke="#393632" fill="none" stroke-width="2"></path></g></g></svg>