<svg id="visual" viewBox="0 0 900 600" width="900" height="600" xmlns="http://www.w3.org/2000/svg" xmlns:xlink="http://www.w3.org/1999/xlink" version="1.1"><rect width="900" height="600" fill="#C7C8CC"></rect><g><g transform="translate(859 198)"><path d="M0 -147L127.3 -73.5L127.3 73.5L0 147L-127.3 73.5L-127.3 -73.5Z" fill="none" stroke="#27282B" stroke-width="2"></path></g><g transform="translate(227 561)"><path d="M0 -102L88.3 -51L88.3 51L0 102L-88.3 51L-88.3 -51Z" fill="none" stroke="#27282B" stroke-width="2"></path></g><g transform="translate(46 98)"><path d="M0 -115L99.6 -57.5L99.6 57.5L0 115L-99.6 57.5L-99.6 -57.5Z" fill="none" stroke="#27282B" stroke-width="2"></path></g><g transform="translate(565 598)"><path d="M0 -114L98.7 -57L98.7 57L0 114L-98.7 57L-98.7 -57Z" fill="none" stroke="#27282B" stroke-width="2"></path></g></g></svg>