<svg width="48" height="48" viewBox="0 0 48 48" fill="none" xmlns="http://www.w3.org/2000/svg"><path d="M24 0.59375C10.74 0.59375 0 11.3398 0 24.5938C0 35.1997 6.876 44.1937 16.41 47.3637C17.61 47.5897 18.05 46.8477 18.05 46.2097C18.05 45.6397 18.03 44.1297 18.02 42.1297C11.344 43.5777 9.936 38.9097 9.936 38.9097C8.844 36.1397 7.266 35.3997 7.266 35.3997C5.092 33.9117 7.434 33.9417 7.434 33.9417C9.844 34.1097 11.11 36.4137 11.11 36.4137C13.25 40.0837 16.728 39.0237 18.1 38.4097C18.316 36.8577 18.934 35.7997 19.62 35.1997C14.29 34.5997 8.688 32.5358 8.688 23.3398C8.688 20.7198 9.618 18.5797 11.158 16.8997C10.888 16.2937 10.078 13.8538 11.368 10.5478C11.368 10.5478 13.378 9.90375 17.968 13.0078C19.888 12.4738 21.928 12.2098 23.968 12.1978C26.008 12.2098 28.048 12.4738 29.968 13.0078C34.528 9.90375 36.538 10.5478 36.538 10.5478C37.828 13.8538 37.018 16.2937 36.778 16.8997C38.308 18.5797 39.238 20.7198 39.238 23.3398C39.238 32.5598 33.628 34.5897 28.288 35.1797C29.128 35.8997 29.908 37.3717 29.908 39.6197C29.908 42.8317 29.878 45.4117 29.878 46.1917C29.878 46.8217 30.298 47.5717 31.528 47.3317C41.13 44.1837 48 35.1838 48 24.5938C48 11.3398 37.254 0.59375 24 0.59375" fill="#1E1B18"/></svg>