<svg width="48" height="48" viewBox="0 0 48 48" fill="none" xmlns="http://www.w3.org/2000/svg"><path fill-rule="evenodd" clip-rule="evenodd" d="M48 24C48 37.2548 37.2548 48 24 48C10.7452 48 0 37.2548 0 24C0 10.7452 10.7452 0 24 0C37.2548 0 48 10.7452 48 24ZM10.4625 38H16.2675V19.3058H10.4625V38ZM10 13.3619C10 15.2182 11.5056 16.7558 13.3619 16.7558C15.2175 16.7558 16.7238 15.2182 16.7238 13.3619C16.7238 12.4703 16.3696 11.6152 15.7391 10.9847C15.1086 10.3542 14.2535 10 13.3619 10C12.4703 10 11.6151 10.3542 10.9847 10.9847C10.3542 11.6152 10 12.4703 10 13.3619ZM32.2012 38H38V27.731C38 22.7059 36.92 18.8371 31.045 18.8371C28.2206 18.8371 26.3275 20.3871 25.5525 21.8559H25.4712V19.3058H19.9038V38H25.7025V28.7435C25.7025 26.306 26.165 23.9497 29.1831 23.9497C32.1575 23.9497 32.2012 26.731 32.2012 28.8998V38Z" fill="#1E1B18"/></svg>